<?xml version="1.0" encoding="UTF-8" standalone="no"?>
<svg
   width="224"
   height="224"
   viewBox="0 0 224 224"
   fill="none"
   version="1.1"
   id="svg11"
   xmlns="http://www.w3.org/2000/svg"
   xmlns:svg="http://www.w3.org/2000/svg">
  <circle
     cx="112"
     cy="112"
     r="111.381"
     fill="#2295D1"
     stroke="#2295D1"
     stroke-linecap="round"
     stroke-linejoin="bevel"
     id="circle1" />
  <circle
     cx="112"
     cy="112"
     r="108.911"
     fill="#66B5FF"
     id="circle2"
     style="fill:#00ffff" />
  <g
     filter="url(#filter0_d_2_14)"
     id="g4">
    <circle
       cx="112"
       cy="112"
       r="99.0099"
       fill="black"
       id="circle3" />
    <circle
       cx="112"
       cy="112"
       r="99.0099"
       stroke="#2295D1"
       stroke-width="2"
       stroke-linecap="round"
       stroke-linejoin="bevel"
       id="circle4" />
  </g>
  <mask
     id="path-5-outside-1_2_14"
     maskUnits="userSpaceOnUse"
     x="44.7525"
     y="61.7722"
     width="63"
     height="100"
     fill="black">
    <rect
       fill="white"
       x="44.7525"
       y="61.7722"
       width="63"
       height="100"
       id="rect4" />
    <path
       d="M48.0252 158.772V65.6813H103.843V75.6813H59.2979V107.136H99.6616V117.136H59.2979V158.772H48.0252Z"
       id="path4" />
  </mask>
  <path
     d="M48.0252 158.772V65.6813H103.843V75.6813H59.2979V107.136H99.6616V117.136H59.2979V158.772H48.0252Z"
     fill="#66B5FF"
     id="path5"
     style="fill:#00ffff" />
  <path
     d="M48.0252 158.772H45.0252L48.0252 161.772V158.772ZM48.0252 65.6813V62.6813L45.0252 65.6813H48.0252ZM103.843 65.6813H106.843L103.843 62.6813V65.6813ZM103.843 75.6813V78.6813L106.843 75.6813H103.843ZM59.2979 75.6813V72.6813L56.2979 75.6813H59.2979ZM59.2979 107.136H56.2979L59.2979 110.136V107.136ZM99.6616 107.136H102.662L99.6616 104.136V107.136ZM99.6616 117.136V120.136L102.662 117.136H99.6616ZM59.2979 117.136V114.136L56.2979 117.136H59.2979ZM59.2979 158.772V161.772L62.2979 158.772H59.2979ZM51.0252 158.772V65.6813H45.0252V158.772H51.0252ZM48.0252 68.6813H103.843V62.6813H48.0252V68.6813ZM100.843 65.6813V75.6813H106.843V65.6813H100.843ZM103.843 72.6813H59.2979V78.6813H103.843V72.6813ZM56.2979 75.6813V107.136H62.2979V75.6813H56.2979ZM59.2979 110.136H99.6616V104.136H59.2979V110.136ZM96.6616 107.136V117.136H102.662V107.136H96.6616ZM99.6616 114.136H59.2979V120.136H99.6616V114.136ZM56.2979 117.136V158.772H62.2979V117.136H56.2979ZM59.2979 155.772H48.0252V161.772H59.2979V155.772Z"
     fill="#227DD1"
     style="mix-blend-mode:lighten;fill:#00ffff"
     mask="url(#path-5-outside-1_2_14)"
     id="path6" />
  <mask
     id="path-7-outside-2_2_14"
     maskUnits="userSpaceOnUse"
     x="120"
     y="61.7722"
     width="75"
     height="100"
     fill="black">
    <rect
       fill="white"
       x="120"
       y="61.7722"
       width="75"
       height="100"
       id="rect6" />
    <path
       d="M123.273 158.772V65.6813H134.545V111.863H135.636L177.455 65.6813H192.182L153.091 107.681L192.182 158.772H178.545L146.182 115.499L134.545 128.59V158.772H123.273Z"
       id="path7" />
  </mask>
  <path
     d="M123.273 158.772V65.6813H134.545V111.863H135.636L177.455 65.6813H192.182L153.091 107.681L192.182 158.772H178.545L146.182 115.499L134.545 128.59V158.772H123.273Z"
     fill="#66B5FF"
     id="path8"
     style="fill:#00ffff" />
  <path
     d="m 123.273,158.772 h -3 l 3,3 z m 0,-93.0907 v -3 l -3,3 z m 11.272,0 h 3 l -3,-3 z m 0,46.1817 h -3 l 3,3 z m 1.091,0 v 3 l 2.224,-0.986 z m 41.819,-46.1817 v -3 l -2.224,0.9863 z m 14.727,0 2.196,2.0439 -2.196,-5.0439 z m -39.091,41.9997 -2.196,-2.044 -0.187,3.867 z m 39.091,51.091 v 3 l 2.382,-4.823 z m -13.637,0 -2.402,1.797 2.402,1.203 z m -32.363,-43.273 2.402,-1.796 -4.644,-0.197 z m -11.637,13.091 -2.242,-1.993 -0.758,1.993 z m 0,30.182 v 3 l 3,-3 z m -8.272,0 V 65.6813 h -6 v 70.99667 22.09403 z m -3,-90.0907 h 11.272 v -6 h -11.272 z m 8.272,-3 v 46.1817 h 6 V 65.6813 Z m 3,49.1817 h 1.091 v -6 h -1.091 z m 3.315,-0.986 41.818,-46.182 -4.447,-4.0274 -41.818,46.1814 z m 39.595,-45.1957 h 14.727 v -6 h -14.727 z m 12.531,-5.0439 -39.091,41.9996 4.392,4.088 39.091,-41.9998 z m -39.278,45.8666 39.091,51.091 4.765,-3.646 -39.09,-51.091 z m 41.474,46.268 h -13.637 v 6 h 13.637 z m -11.234,1.203 -32.364,-43.272 -4.805,3.593 32.364,43.273 z m -37.008,-43.469 -11.637,13.091 4.485,3.986 11.636,-13.09 z m -12.395,15.084 v 30.182 h 6 V 128.59 Z m 3,27.182 h -11.272 v 6 h 11.272 z"
     fill="#227DD1"
     style="mix-blend-mode:lighten;fill:#00ffff"
     mask="url(#path-7-outside-2_2_14)"
     id="path9" />
  <defs
     id="defs11">
    <filter
       id="filter0_d_2_14"
       x="7.9901"
       y="11.9901"
       width="208.02"
       height="208.02"
       filterUnits="userSpaceOnUse"
       color-interpolation-filters="sRGB">
      <feFlood
         flood-opacity="0"
         result="BackgroundImageFix"
         id="feFlood9" />
      <feColorMatrix
         in="SourceAlpha"
         type="matrix"
         values="0 0 0 0 0 0 0 0 0 0 0 0 0 0 0 0 0 0 127 0"
         result="hardAlpha"
         id="feColorMatrix9" />
      <feOffset
         dy="4"
         id="feOffset9" />
      <feGaussianBlur
         stdDeviation="2"
         id="feGaussianBlur9" />
      <feComposite
         in2="hardAlpha"
         operator="out"
         id="feComposite9" />
      <feColorMatrix
         type="matrix"
         values="0 0 0 0 0 0 0 0 0 0 0 0 0 0 0 0 0 0 0.25 0"
         id="feColorMatrix10" />
      <feBlend
         mode="normal"
         in2="BackgroundImageFix"
         result="effect1_dropShadow_2_14"
         id="feBlend10" />
      <feBlend
         mode="normal"
         in="SourceGraphic"
         in2="effect1_dropShadow_2_14"
         result="shape"
         id="feBlend11" />
    </filter>
  </defs>
</svg>
